<svg xmlns="http://www.w3.org/2000/svg" width="980" height="360" viewBox="0 0 980 360">
    <defs>
      <linearGradient id="lineGlow_duration.svg" x1="0" y1="0" x2="1" y2="0">
        <stop offset="0" stop-color="#facc15" stop-opacity="0.15"/>
        <stop offset="1" stop-color="#facc15" stop-opacity="0.45"/>
      </linearGradient>
    </defs>

    <rect x="0" y="0" width="980" height="360" fill="#0b1220"/>
    <rect x="18" y="14" width="944" height="332" rx="18" fill="#0f1a2e"/>

    <text x="68" y="52" fill="#e5e7eb" font-size="20" font-weight="800">Duration Trend (seconds)</text>
    <text x="68" y="68" fill="#9ca3af" font-size="12">Last 1 runs • 01/29 → 01/29</text>

    
    <g>
      <rect x="68" y="22" rx="12" ry="12" width="230" height="30" fill="#0f1a2e" stroke="#22314a" />
      <circle cx="86" cy="37" r="6" fill="#facc15" />
      <text x="102" y="42" fill="#e5e7eb" font-size="12" font-weight="700">
        Latest: 9 s
      </text>
    </g>
  

    <line x1="68" y1="72" x2="954" y2="72" stroke="#22314a" stroke-dasharray="5 6" stroke-width="1" /><line x1="68" y1="118.4" x2="954" y2="118.4" stroke="#22314a" stroke-dasharray="5 6" stroke-width="1" /><line x1="68" y1="164.8" x2="954" y2="164.8" stroke="#22314a" stroke-dasharray="5 6" stroke-width="1" /><line x1="68" y1="211.2" x2="954" y2="211.2" stroke="#22314a" stroke-dasharray="5 6" stroke-width="1" /><line x1="68" y1="257.6" x2="954" y2="257.6" stroke="#22314a" stroke-dasharray="5 6" stroke-width="1" /><line x1="68" y1="304" x2="954" y2="304" stroke="#22314a" stroke-dasharray="5 6" stroke-width="1" />

    <line x1="68" y1="72" x2="68" y2="304" stroke="#22314a" stroke-width="1.5"/>
    <line x1="68" y1="304" x2="954" y2="304" stroke="#22314a" stroke-width="1.5"/>

    
      <text x="56" y="77" text-anchor="end" fill="#9ca3af" font-size="12">
        11
      </text>
      <text x="56" y="123.4" text-anchor="end" fill="#9ca3af" font-size="12">
        9
      </text>
      <text x="56" y="169.8" text-anchor="end" fill="#9ca3af" font-size="12">
        7
      </text>
      <text x="56" y="216.2" text-anchor="end" fill="#9ca3af" font-size="12">
        4
      </text>
      <text x="56" y="262.6" text-anchor="end" fill="#9ca3af" font-size="12">
        2
      </text>
      <text x="56" y="309" text-anchor="end" fill="#9ca3af" font-size="12">
        0
      </text>
    <text x="68" y="332" text-anchor="middle" fill="#9ca3af" font-size="12">Run 1</text>

    <path d="M 68 114.18181818181817" fill="none" stroke="url(#lineGlow_duration.svg)" stroke-width="10" stroke-linecap="round" opacity="0.65"/>
    <path d="M 68 114.18181818181817" fill="none" stroke="#facc15" stroke-width="4" stroke-linecap="round"/>

    <circle cx="68" cy="114.18181818181817" r="5.5" fill="#0b1220" stroke="#facc15" stroke-width="2"/>

    <text x="954" y="342" text-anchor="end" fill="#9ca3af" font-size="11">
      Opex QA Dashboard • generated by GitHub Actions
    </text>
  </svg>