<svg xmlns="http://www.w3.org/2000/svg" width="900" height="460" viewBox="0 0 900 460">
    <defs>
      <linearGradient id="bgFade" x1="0" y1="0" x2="0" y2="1">
        <stop offset="0" stop-color="#1f2430"/>
        <stop offset="1" stop-color="#1b1f2a"/>
      </linearGradient>
      <filter id="softShadow" x="-30%" y="-30%" width="160%" height="160%">
        <feDropShadow dx="0" dy="6" stdDeviation="8" flood-color="#000" flood-opacity="0.35"/>
      </filter>
    </defs>

    <rect x="0" y="0" width="900" height="460" fill="url(#bgFade)"/>

    <text x="36" y="44" fill="#eef1f6" font-size="20" font-weight="700" font-family="Trebuchet MS, Lucida Sans Unicode, Lucida Grande, sans-serif">
      #### Test Results
    </text>
    <line x1="36" y1="58" x2="864" y2="58" stroke="#2f3546" stroke-width="1"/>

    <text x="36" y="98" fill="#eef1f6" font-size="18" font-weight="600" font-family="Trebuchet MS, Lucida Sans Unicode, Lucida Grande, sans-serif">
      Test Summary
    </text>

    <text x="72" y="158" fill="#eef1f6" font-size="15" font-family="Trebuchet MS, Lucida Sans Unicode, Lucida Grande, sans-serif">
      <tspan fill="#3fa15a" font-weight="700">- Green:</tspan>
      <tspan> 2 tests passed</tspan>
    </text>
    <text x="600" y="158" fill="#eef1f6" font-size="15" font-family="Trebuchet MS, Lucida Sans Unicode, Lucida Grande, sans-serif">
      <tspan fill="#b33430" font-weight="700">- Red:</tspan>
      <tspan> 4 tests failed</tspan>
    </text>

    <g filter="url(#softShadow)">
      <path d="M 320 254.99999999999997 A 130 130 0 0 1 515 142.41669750802296 L 485 194.37822173508928 A 70 70 0 0 0 380 255 Z" fill="#3fa15a"/>
      <path d="M 515 142.41669750802296 A 130 130 0 1 1 320 255.0000000000002 L 380 255.0000000000001 A 70 70 0 1 0 485 194.37822173508928 Z" fill="#b33430"/>
    </g>

    <circle cx="450" cy="255" r="64" fill="#232836"/>

    <text x="530" y="197" fill="#b33430" font-size="14" font-weight="700" font-family="Trebuchet MS, Lucida Sans Unicode, Lucida Grande, sans-serif">
      Failed: 4 Tests
    </text>
    <text x="546" y="217" fill="#eef1f6" font-size="14" font-weight="700" font-family="Trebuchet MS, Lucida Sans Unicode, Lucida Grande, sans-serif">
      66.7%
    </text>

    <text x="450" y="301" fill="#eef1f6" text-anchor="middle" font-size="16" font-weight="700" font-family="Trebuchet MS, Lucida Sans Unicode, Lucida Grande, sans-serif">
      Passed: 2 Tests
    </text>
    <text x="450" y="323" fill="#eef1f6" text-anchor="middle" font-size="16" font-weight="700" font-family="Trebuchet MS, Lucida Sans Unicode, Lucida Grande, sans-serif">
      33.3%
    </text>

    <text x="450" y="410" fill="#eef1f6" text-anchor="middle" font-size="14" font-family="Trebuchet MS, Lucida Sans Unicode, Lucida Grande, sans-serif">
      - 33.3% of tests passed
    </text>
    <text x="450" y="432" fill="#eef1f6" text-anchor="middle" font-size="14" font-family="Trebuchet MS, Lucida Sans Unicode, Lucida Grande, sans-serif">
      - 66.7% of tests failed
    </text>
  </svg>